# xmcd
#
# Track frame offsets:
#	150
#	11338
#	21028
#	34035
#	47285
#	58580
#	69768
#	80305
#	92375
#	104583
#	114678
#	126353
#	139465
#	152070
#	162563
#	175390
#	186535
#	199280
#	207950
#	218398
#	229620
#	242180
#	252525
#	262598
#
# Disc length: 3688
#
# Revision: 7
# Processed by: cddbd v1.5.1PL0 Copyright (c) Steve Scherf et al.
# Submitted via: ExactAudioCopy v0.90b4
# Normalized: r5:TDELIM( - ),TSWAP
#
DISCID=490e6618
DTITLE=Time Life Music (Various Artist) - Country USA - 1966
DYEAR=1966
DGENRE=Country
TTITLE0=Buck Owens - Open Up Your Heart
TTITLE1=Loretta Lynn - Don't Come Home A-Drinkin' (With Lovin' On Your Mind)
TTITLE2=Merle Haggard - Swinging Doors
TTITLE3=David Houston - Almost Persuaded
TTITLE4=Sonny James - Take Good Care Of Her
TTITLE5=Waylon Jennings - (That's What You Get) For Lovin' Me
TTITLE6=Bill Anderson - I Get The Fever
TTITLE7=Bobby Bare - The Streets Of Baltimore
TTITLE8=Dottie West - Would You Hold It Against Me
TTITLE9=Loretta Lynn - You Ain't Woman Enough
TTITLE10=Jack Greene - There Goes My Everything
TTITLE11=Jim Reeves - Distant Drums
TTITLE12=Merle Haggard - The Bottle Let Me Down
TTITLE13=Buck Owens - Waitin' In Your Welfare Line
TTITLE14=Connie Smith - The Hurtin's All Over
TTITLE15=Sonny James - Room In Your Heart
TTITLE16=Johnny Cash - The One On The Right Is On The Left
TTITLE17=Roger Miller - England Swings
TTITLE18=Jody Miller - Queen Of The House
TTITLE19=George Jones - Four-O-Thirty Three
TTITLE20=Jim Reeves - Blue Side Of Lonesome
TTITLE21=Buck Owens - Think Of Me
TTITLE22=Eddy Arnold - The Last Word In Lonesome Is Me
TTITLE23=Hank Williams Jr. - Standing In The Shadows
EXTD=YEAR: 1966
EXTT0=Owens, Buck
EXTT1=Lynn, Loretta
EXTT2=Haggard, Merle
EXTT3=Houston, David
EXTT4=James, Sonny
EXTT5=Jennings, Waylon
EXTT6=Anderson, Bill
EXTT7=Bare, Bobby
EXTT8=West, Dottie
EXTT9=Lynn, Loretta
EXTT10=Greene, Jack
EXTT11=Reeves, Jim
EXTT12=Haggard, Merle
EXTT13=Owens, Buck
EXTT14=Smith, Connie
EXTT15=James, Sonny
EXTT16=Cash, Johnny
EXTT17=Miller, Roger
EXTT18=Miller, Jody
EXTT19=Jones, George
EXTT20=Reeves, Jim
EXTT21=Owens, Buck
EXTT22=Arnold, Eddy
EXTT23=Williams Jr., Hank
PLAYORDER=
